Coordinates
version=1
nRows=8
nColumns=36
inDegrees=yes

Units are S.I. units (second, meters, Newtons, ...)
If the header above contains a line with 'inDegrees', this indicates whether rotational values are in degrees (yes) or radians (no).

endheader
time	pelvis_tilt	pelvis_list	pelvis_rotation	pelvis_tx	pelvis_ty	pelvis_tz	hip_flexion_r	hip_adduction_r	hip_rotation_r	knee_angle_r	knee_angle_r_beta	ankle_angle_r	subtalar_angle_r	mtp_angle_r	hip_flexion_l	hip_adduction_l	hip_rotation_l	knee_angle_l	knee_angle_l_beta	ankle_angle_l	subtalar_angle_l	mtp_angle_l	lumbar_extension	lumbar_bending	lumbar_rotation	arm_flex_r	arm_add_r	arm_rot_r	elbow_flex_r	pro_sup_r	arm_flex_l	arm_add_l	arm_rot_l	elbow_flex_l	pro_sup_l
     14.96666670	     -2.74385588	     -0.41590703	     -9.59476230	      0.39270012	      0.90182861	      0.78187412	     -6.85010458	      2.89021355	      4.48659856	      3.98252573	      0.06950819	     19.42625585	     -1.89725653	     -7.49999987	     30.13530231	     -4.14887154	     -6.87523076	     15.65401645	      0.27321413	      8.04433609	     -2.95956052	     -7.49999987	     -4.71313803	      1.16886300	     10.83567751	     21.68827086	    -19.29734600	      8.55212464	     41.79823405	     81.34407028	     -1.66835965	     -6.90627684	      3.69578556	     11.87195243	     78.56582305
     14.98333330	     -2.69041947	     -0.45493374	     -9.95314658	      0.39412171	      0.89905077	      0.77723098	     -8.37299068	      2.64745366	      5.13121094	      2.78290247	      0.04857081	     19.96455595	     -1.96508998	     -7.49999987	     29.87446532	     -4.01225346	     -6.28791572	     13.02463070	      0.22732269	      8.53158476	     -1.89807576	     -7.49999987	     -4.74178780	      1.15419222	     11.09651319	     21.77876823	    -19.37138005	      8.69515938	     42.74164434	     82.15678157	     -2.23906522	     -6.68485192	      3.10791585	     11.56468847	     79.03289546
     15.00000000	     -2.73966871	     -0.38387541	    -10.27730209	      0.39651577	      0.89867062	      0.77400704	     -9.64594223	      2.24627100	      5.70440124	      1.96214042	      0.03424581	     20.68685489	     -1.98900029	     -7.49999987	     29.75917827	     -3.76852851	     -5.59782397	     11.72882463	      0.20470661	      8.77626343	     -1.56249430	     -7.49999987	     -4.34298536	      1.11560147	     11.37820011	     21.43839993	    -19.03778464	      7.10376303	     43.53066705	     88.39571049	     -2.81532107	     -6.27578500	     -1.24350219	     11.42683762	     83.92950529
     15.01666670	     -2.75183573	     -0.13822788	    -10.65822380	      0.39930915	      0.89963966	      0.77285813	    -10.80851614	      1.59099629	      6.32965421	      1.47846188	      0.02580403	     21.31188875	     -2.02040808	     -7.49999987	     29.52195442	     -3.39664149	     -5.18676592	     11.61458447	      0.20271274	      8.53814506	     -1.74147488	     -7.49999987	     -3.74029217	      0.92929582	     11.59632784	     21.01197143	    -18.77041680	      7.21234499	     43.65904151	     88.43253642	     -3.35292709	     -6.17216619	     -1.20805202	     11.10716923	     84.05303873
     15.03333330	     -2.70549941	      0.09575418	    -10.93457759	      0.40176805	      0.90044075	      0.77277496	    -11.94252330	      0.90650887	      6.85628310	      1.21070275	      0.02113075	     21.72276520	     -2.00819667	     -7.49999987	     29.18245830	     -3.03431116	     -4.93673456	     12.50867398	      0.21831755	      7.98254541	     -1.83006991	     -7.49999987	     -3.07549967	      0.75546517	     11.68145638	     20.28877808	    -18.39620188	      7.31956700	     43.59834744	     88.43773552	     -3.92650541	     -6.06549144	     -1.21266618	     10.90761764	     84.06484898
     15.05000000	     -2.69000941	      0.53661980	    -11.17176285	      0.40432002	      0.89996370	      0.77284182	    -12.83863979	     -0.00691715	      7.80544536	      1.23179518	      0.02149888	     21.69665351	     -2.91024662	     -7.49999987	     28.70277453	     -2.40704474	     -4.04710103	     13.62814156	      0.23785594	      6.07244412	     -3.93355062	     -7.49999987	     -2.24610475	      0.22847684	     12.16805065	     18.92813476	    -17.86662016	      6.58939197	     43.29793560	     88.22842483	     -4.25235644	     -6.17228488	     -1.33237796	     10.79582696	     84.03585927
     15.06666670	     -2.84548576	      0.98283036	    -11.15754400	      0.40773800	      0.89839317	      0.77195130	    -13.29523986	     -0.86052664	      8.58744153	      1.72211917	      0.03005665	     21.29418790	     -4.13672624	     -7.49999987	     28.48361825	     -1.79539252	     -3.26411139	     15.21251178	      0.26550842	      4.37900267	     -5.47361169	     -7.49999987	     -1.20557635	     -0.35426494	     12.36960024	     17.33285785	    -17.13135075	      5.49080076	     43.12666910	     87.98363541	     -4.39875232	     -6.41134688	     -1.33691152	     10.83804832	     84.00665733
     15.08333330	     -2.64251271	      1.44489141	    -10.97946370	      0.41266390	      0.89870345	      0.76961548	    -13.46647547	     -1.75511307	      8.55776980	      3.48045327	      0.06074537	     21.02163854	     -4.74489982	     -7.49999987	     27.79616465	     -1.12531480	     -3.00313152	     16.87171705	      0.29446701	      3.23518474	     -5.63437656	     -7.49999987	     -0.70298966	     -1.02672118	     12.15783353	     15.91110245	    -16.50737827	      5.49857419	     42.70328963	     87.96073361	     -4.28522617	     -6.69335251	     -1.33186543	     11.00092375	     83.99056410
